<svg width="20" height="20" viewBox="0 0 20 20" fill="none" xmlns="http://www.w3.org/2000/svg">
<path d="M19.324 3.93929L13.2641 9.9998L19.324 16.06C20.2253 16.9617 20.2253 18.4224 19.324 19.3241C18.8736 19.7745 18.2831 19.9999 17.6929 19.9999C17.1018 19.9999 16.5113 19.7749 16.0612 19.3241L10 13.2632L3.93929 19.3241C3.48897 19.7745 2.89844 19.9998 2.30775 19.9998C1.71722 19.9998 1.1271 19.7748 0.676378 19.3241C-0.225 18.4228 -0.225 16.962 0.676378 16.06L6.73609 9.99974L0.676033 3.93929C-0.225344 3.03791 -0.225344 1.57689 0.676033 0.675516C1.57724 -0.225172 3.03739 -0.225172 3.93894 0.675516L9.99997 6.73603L16.0605 0.675516C16.9623 -0.225172 18.4226 -0.225172 19.3236 0.675516C20.2253 1.57689 20.2253 3.03791 19.324 3.93929Z" fill="#225F3A"/>
</svg>
