<svg width="20" height="20" viewBox="0 0 20 20" fill="none" xmlns="http://www.w3.org/2000/svg">
<path d="M10 20C15.5095 20 20 15.5095 20 10C20 4.4905 15.5095 0 10 0C4.4905 0 0 4.4905 0 10C0 15.5095 4.4905 20 10 20ZM10 1.39896C14.7323 1.39896 18.601 5.25043 18.601 10C18.601 14.7496 14.7496 18.601 10 18.601C5.25043 18.601 1.39896 14.7323 1.39896 10C1.39896 5.2677 5.2677 1.39896 10 1.39896Z" fill="black"/>
<path d="M5.38866 10.6045H14.5942C14.9914 10.6045 15.3023 10.2936 15.3023 9.89641C15.3023 9.49917 14.9914 9.18829 14.5942 9.18829H5.38866C4.99142 9.18829 4.68054 9.49917 4.68054 9.89641C4.68054 10.2936 5.00869 10.6045 5.38866 10.6045Z" fill="black"/>
</svg>
