<svg width="17" height="20" viewBox="0 0 17 20" fill="none" xmlns="http://www.w3.org/2000/svg">
<path d="M3.96862 18.4113L0.694824 15.8585L10.543 3.22874L13.8168 5.78149L3.96862 18.4113ZM1.41489 15.7695L3.87955 17.6913L13.0968 5.87059L10.6322 3.94877L1.41489 15.7695Z" fill="black"/>
<path d="M14.1772 5.31927L10.9034 2.76652L11.6854 1.76367L14.9592 4.31642L14.1772 5.31927ZM11.6234 2.67746L14.0881 4.59928L14.2391 4.40556L11.7745 2.48374L11.6234 2.67746Z" fill="black"/>
<path d="M15.2994 3.8804L12.0255 1.32755L12.1894 1.11733C12.4939 0.72684 13.0607 0 13.6901 0C13.8739 0 14.0448 0.0605757 14.198 0.179999L15.8812 1.49251C16.0513 1.62169 16.1558 1.80213 16.1838 2.01445C16.2391 2.43573 16.0035 2.97725 15.4632 3.67005L15.2994 3.8804ZM12.7473 1.23973L15.2067 3.15746C15.6514 2.53977 15.6936 2.22138 15.6751 2.08129C15.6649 2.00337 15.6325 1.94764 15.5702 1.90051L15.5671 1.89817L13.8825 0.584582C13.8199 0.535763 13.7588 0.51303 13.6901 0.51303C13.3843 0.51303 12.9977 0.933028 12.7473 1.23973Z" fill="black"/>
<path d="M0.684365 20C0.481667 20 0.289979 19.9098 0.158529 19.7524C0.0292127 19.5978 -0.024621 19.3949 0.0105115 19.1953L0.508093 16.0654L3.84992 18.6712L0.932597 19.9532C0.852303 19.9843 0.768792 20 0.684365 20ZM0.878255 17.0046L0.515919 19.2835C0.504061 19.3492 0.529097 19.3959 0.552169 19.4235C0.585371 19.4633 0.6348 19.487 0.684331 19.487C0.703812 19.487 0.723631 19.4834 0.743213 19.4764L2.85672 18.5474L0.878255 17.0046Z" fill="black"/>
</svg>
